<svg xmlns="http://www.w3.org/2000/svg" viewBox="0 0 64 64">
  <defs>
    <linearGradient id="portalIconBg" x1="10%" y1="10%" x2="90%" y2="90%">
      <stop offset="0%" stop-color="#c8a76a" />
      <stop offset="100%" stop-color="#382721" />
    </linearGradient>
    <linearGradient id="portalIconSheen" x1="0%" y1="0%" x2="100%" y2="100%">
      <stop offset="0%" stop-color="rgba(255,255,255,0.78)" />
      <stop offset="100%" stop-color="rgba(255,255,255,0)" />
    </linearGradient>
  </defs>
  <rect x="6" y="6" width="52" height="52" rx="18" fill="url(#portalIconBg)" />
  <path
    d="M20 18h24c2.2 0 4 1.8 4 4v20c0 2.2-1.8 4-4 4H31.5l-7.5 7v-7H20c-2.2 0-4-1.8-4-4V22c0-2.2 1.8-4 4-4Z"
    fill="#fff7f2"
    opacity="0.96"
  />
  <path
    d="M24 24h16m-16 7h12m-12 7h16"
    fill="none"
    stroke="#382721"
    stroke-linecap="round"
    stroke-width="3"
  />
  <path d="M14 10c10-1 22 5 31 15" fill="none" stroke="url(#portalIconSheen)" stroke-linecap="round" stroke-width="5" />
</svg>
